<svg xmlns="http://www.w3.org/2000/svg" width="40" height="40" viewBox="0 0 40 40">
  <metadata><?xpacket begin="﻿" id="W5M0MpCehiHzreSzNTczkc9d"?>
<x:xmpmeta xmlns:x="adobe:ns:meta/" x:xmptk="Adobe XMP Core 5.6-c140 79.160451, 2017/05/06-01:08:21        ">
   <rdf:RDF xmlns:rdf="http://www.w3.org/1999/02/22-rdf-syntax-ns#">
      <rdf:Description rdf:about=""/>
   </rdf:RDF>
</x:xmpmeta>
                                                                                                    
                                                                                                    
                                                                                                    
                                                                                                    
                                                                                                    
                                                                                                    
                                                                                                    
                                                                                                    
                                                                                                    
                                                                                                    
                                                                                                    
                                                                                                    
                                                                                                    
                                                                                                    
                                                                                                    
                                                                                                    
                                                                                                    
                                                                                                    
                                                                                                    
                                                                                                    
                           
<?xpacket end="w"?></metadata>
<defs>
    <style>
      .cls-1 {
        fill: #fff;
        fill-rule: evenodd;
      }
    </style>
  </defs>
  <path id="_3" data-name="3" class="cls-1" d="M19.136,5.643A9.3,9.3,0,0,0,12.584,7.8,8.557,8.557,0,0,0,10.064,14h6.012a3.966,3.966,0,0,1,.864-2.358,2.563,2.563,0,0,1,2.052-.882,2.554,2.554,0,0,1,1.89.7,2.7,2.7,0,0,1,.7,2q0,2.988-4.068,2.916H16.4v5h1.152q4.536,0,4.536,3.132a2.693,2.693,0,0,1-2.88,2.844,3.2,3.2,0,0,1-2.52-.972,4.144,4.144,0,0,1-.936-2.664H9.74q0.216,4.428,2.79,6.588a10.493,10.493,0,0,0,6.966,2.16,10.328,10.328,0,0,0,4.626-.954,6.817,6.817,0,0,0,2.934-2.664,7.548,7.548,0,0,0,1.008-3.906q0-4.572-4.932-6.156V18.6A5.543,5.543,0,0,0,26.318,16.7a5.984,5.984,0,0,0,1.278-4,6.55,6.55,0,0,0-3.888-6.138,10.463,10.463,0,0,0-4.572-.918h0Z"/>
</svg>
