<?xml version="1.0" encoding="iso-8859-1"?>
<!-- Generator: Adobe Illustrator 19.0.0, SVG Export Plug-In . SVG Version: 6.00 Build 0)  -->
<svg version="1.1" id="Capa_1" xmlns="http://www.w3.org/2000/svg" xmlns:xlink="http://www.w3.org/1999/xlink" x="0px" y="0px"
	 viewBox="0 0 512 512" style="enable-background:new 0 0 512 512;" xml:space="preserve">
<path style="fill:#CCCCCC;" d="M422.005,166C372.302,166,332,206.294,332,256s40.302,90,90.005,90S512,305.706,512,256
	S471.708,166,422.005,166z M422.005,320.762c-35.704,0-64.748-29.056-64.748-64.762c0-35.707,29.044-64.752,64.748-64.752
	s64.748,29.045,64.748,64.752C486.753,291.706,457.71,320.762,422.005,320.762z"/>
<path style="fill:#A6A6A6;" d="M421.995,166c-4.285,0-8.498,0.306-12.623,0.886c43.727,6.139,85.294,43.694,85.294,89.114
	s-41.568,82.975-85.294,89.114c4.125,0.579,8.338,0.886,12.623,0.886C471.698,346,512,305.706,512,256S471.698,166,421.995,166z"/>
<path style="fill:#CCCCCC;" d="M311.996,166c-49.702,0-89.994,40.294-89.994,90s40.291,90,89.994,90S402,305.706,402,256
	S361.698,166,311.996,166z M311.996,320.762c-35.704,0-64.747-29.056-64.747-64.762c0-35.707,29.043-64.752,64.747-64.752
	s64.758,29.045,64.758,64.752C376.754,291.706,347.7,320.762,311.996,320.762z"/>
<path style="fill:#A6A6A6;" d="M311.996,166c-4.285,0-8.498,0.306-12.623,0.886c43.726,6.139,85.293,43.694,85.293,89.114
	s-41.567,82.975-85.293,89.114c4.125,0.579,8.338,0.886,12.623,0.886C361.698,346,402,305.706,402,256S361.698,166,311.996,166z"/>
<path style="fill:#CCCCCC;" d="M200.005,166C150.302,166,110,206.294,110,256s40.302,90,90.005,90S290,305.706,290,256
	S249.708,166,200.005,166z M200.005,320.762c-35.704,0-64.748-29.056-64.748-64.762c0-35.707,29.044-64.752,64.748-64.752
	s64.748,29.045,64.748,64.752C264.753,291.706,235.71,320.762,200.005,320.762z"/>
<path style="fill:#A6A6A6;" d="M199.995,166c-4.285,0-8.498,0.306-12.623,0.886c43.727,6.139,85.294,43.694,85.294,89.114
	s-41.568,82.975-85.294,89.114c4.125,0.579,8.338,0.886,12.623,0.886C249.698,346,290,305.706,290,256S249.698,166,199.995,166z"/>
<path style="fill:#CCCCCC;" d="M89.995,166C40.292,166,0,206.294,0,256s40.292,90,89.995,90S180,305.706,180,256
	S139.698,166,89.995,166z M89.995,320.762c-35.704,0-64.748-29.056-64.748-64.762c0-35.707,29.044-64.752,64.748-64.752
	s64.759,29.045,64.759,64.752C154.753,291.706,125.699,320.762,89.995,320.762z"/>
<path style="fill:#A6A6A6;" d="M89.995,166c-4.285,0-8.498,0.306-12.623,0.886c43.727,6.139,85.294,43.694,85.294,89.114
	s-41.568,82.975-85.294,89.114c4.125,0.58,8.338,0.886,12.623,0.886C139.698,346,180,305.706,180,256S139.698,166,89.995,166z"/>
<g>
</g>
<g>
</g>
<g>
</g>
<g>
</g>
<g>
</g>
<g>
</g>
<g>
</g>
<g>
</g>
<g>
</g>
<g>
</g>
<g>
</g>
<g>
</g>
<g>
</g>
<g>
</g>
<g>
</g>
</svg>
