<?xml version="1.0" encoding="iso-8859-1"?>
<!-- Generator: Adobe Illustrator 19.0.0, SVG Export Plug-In . SVG Version: 6.00 Build 0)  -->
<svg xmlns="http://www.w3.org/2000/svg" xmlns:xlink="http://www.w3.org/1999/xlink" version="1.1" id="Layer_1" x="0px" y="0px" viewBox="0 0 512 512" style="enable-background:new 0 0 512 512;" xml:space="preserve" width="512px" height="512px">
<g>
	<g>
		<path d="M165.425,3.638c-23.69,0-42.963,19.273-42.963,42.962c0,23.69,19.273,42.963,42.963,42.963    c23.689,0,42.963-19.273,42.963-42.963C208.388,22.911,189.115,3.638,165.425,3.638z M165.425,69.562    c-12.662,0-22.963-10.301-22.963-22.963c0-12.662,10.301-22.962,22.963-22.962c12.662,0,22.963,10.301,22.963,22.962    C188.388,59.26,178.087,69.562,165.425,69.562z" fill="#ff3737"/>
	</g>
</g>
<g>
	<g>
		<path d="M360.241,3.638c-23.69,0-42.963,19.273-42.963,42.962c0,23.69,19.274,42.963,42.963,42.963    c23.689,0,42.963-19.273,42.963-42.963C403.204,22.911,383.931,3.638,360.241,3.638z M360.241,69.562    c-12.662,0-22.963-10.301-22.963-22.963c0-12.662,10.301-22.962,22.963-22.962s22.963,10.301,22.963,22.962    C383.204,59.26,372.903,69.562,360.241,69.562z" fill="#ff3737"/>
	</g>
</g>
<g>
	<g>
		<path d="M502,488.361h-51.25l-0.458-214.212c-0.012-5.516-4.486-9.979-10-9.979c-0.007,0-0.015,0-0.021,0    c-5.522,0.012-9.99,4.499-9.979,10.021l0.457,214.169h-62.082l-0.458-234.035c-0.001-0.6-0.064-1.185-0.167-1.756v-11.314    c0-9.913-1.498-19.625-4.449-28.979c10.591-5.85,22.498-8.934,34.856-8.961c0.055,0,0.106,0,0.161,0    c18.902,0,36.67,7.105,50.04,20.016c13.326,12.868,20.686,29.975,20.725,48.185l0.16,44.661c0.02,5.511,4.493,9.964,9.999,9.964    c0.013,0,0.024,0,0.037,0c5.522-0.02,9.983-4.513,9.964-10.036l-0.16-44.646c-0.05-23.654-9.579-45.856-26.832-62.515    c-9.36-9.038-20.393-15.835-32.406-20.157c8.66-8.954,13.416-20.707,13.389-33.19c-0.057-26.225-21.409-47.52-47.621-47.52    c-0.034,0-0.069,0-0.103,0c-26.258,0.057-47.575,21.465-47.52,47.723c0.027,12.721,5.006,24.669,14.02,33.645    c0.296,0.295,0.604,0.573,0.906,0.859c-2.577,1.065-5.106,2.25-7.583,3.551c-12.203-21.813-32.125-38.03-55.693-45.978    c10.087-9.6,16.394-23.138,16.394-38.13c0-29.041-23.626-52.667-52.666-52.667c-29.04,0-52.666,23.626-52.666,52.667    c0,15.76,6.967,29.914,17.972,39.574c-21.729,8.342-40.06,23.839-51.582,44.276c-3.501-1.812-7.107-3.392-10.799-4.733    c8.345-8.582,13.499-20.283,13.499-33.171c0-26.259-21.363-47.622-47.622-47.622S84.84,129.434,84.84,155.693    c0,13.583,5.725,25.846,14.878,34.529c-32.632,13.402-55.594,44.856-55.594,81.431v44.661c0,5.523,4.478,10,10,10    c5.522,0,10-4.477,10-10v-44.661c0-37.682,31.752-68.338,70.781-68.338c12.188,0,23.958,2.979,34.459,8.659    c-3.015,9.447-4.546,19.261-4.546,29.281v78.109v6.854V488.36h-60.304V274.259c0-5.523-4.478-10-10-10c-5.522,0-10,4.477-10,10    v214.102H10c-5.522,0-10,4.477-10,10s4.478,10,10,10h84.515H502c5.522,0,10-4.477,10-10S507.522,488.361,502,488.361z     M395.845,128.077c0.021,0,0.039,0,0.059,0c15.203,0,27.589,12.353,27.622,27.563c0.016,7.378-2.843,14.32-8.048,19.549    c-5.206,5.228-12.137,8.116-19.515,8.132c-0.021,0-0.04,0-0.061,0c-7.355,0-14.274-2.857-19.488-8.048    c-5.229-5.206-8.116-12.136-8.132-19.514C368.25,140.528,380.614,128.11,395.845,128.077z M132.462,183.316    c-15.23,0-27.622-12.391-27.622-27.622c0-15.231,12.391-27.622,27.622-27.622c15.23,0,27.622,12.391,27.622,27.622    C160.084,170.925,147.692,183.316,132.462,183.316z M263.66,77.081c18.012,0,32.666,14.654,32.666,32.667    s-14.654,32.667-32.666,32.667s-32.666-14.654-32.666-32.667S245.648,77.081,263.66,77.081z M210.625,488.36h-25.807V365.222    c7.312,5.368,16.177,8.815,25.807,9.599V488.36z M313.716,234.211c-5.522,0-10,4.477-10,10v244.15h-28.762V367.617    c0-5.523-4.478-10-10-10c-5.522,0-10,4.477-10,10v120.743h-24.328V244.21c0-5.523-4.478-10-10-10c-5.522,0-10,4.477-10,10v110.509    c-14.563-1.963-25.807-13.992-25.807-28.5v-6.854v-78.109c0-10.235,2.006-20.199,5.959-29.615    c0.008-0.019,0.015-0.038,0.023-0.058c12.574-29.87,42.257-49.169,75.63-49.169c33.536,0,63.277,19.43,75.77,49.499    c3.877,9.333,5.843,19.205,5.843,29.342v84.963c0,14.013-10.49,25.713-24.328,28.265V244.211    C323.716,238.689,319.238,234.211,313.716,234.211z M323.715,488.36V374.683c9.228-1.021,17.699-4.502,24.711-9.755l0.242,123.432    H323.715z" fill="#ff3737"/>
	</g>
</g>
<g>
	<g>
		<circle cx="479.54" cy="355.469" r="10" fill="#ff3737"/>
	</g>
</g>
<g>
	<g>
		<circle cx="54.12" cy="355.469" r="10" fill="#ff3737"/>
	</g>
</g>
<g>
</g>
<g>
</g>
<g>
</g>
<g>
</g>
<g>
</g>
<g>
</g>
<g>
</g>
<g>
</g>
<g>
</g>
<g>
</g>
<g>
</g>
<g>
</g>
<g>
</g>
<g>
</g>
<g>
</g>
</svg>
