<?xml version="1.0" encoding="iso-8859-1"?>
<!-- Generator: Adobe Illustrator 19.0.0, SVG Export Plug-In . SVG Version: 6.00 Build 0)  -->
<svg version="1.1" id="Capa_1" xmlns="http://www.w3.org/2000/svg" xmlns:xlink="http://www.w3.org/1999/xlink" x="0px" y="0px"
	 viewBox="0 0 512 512" style="enable-background:new 0 0 512 512;" xml:space="preserve">
<path style="fill:#CCCCCC;" d="M470.941,294.845c-6.765,21.616-19.46,41.655-36.791,59.004H160.116
	c-60.237,0-40.498-45.273-40.498-45.273c34.01-72.177,114.174-177.753,142.624-214.306c32.064,0.835,62.461,6.679,89.708,16.606
	c-63.667,71.528-119.642,142.407-142.532,171.909c-4.541,5.844-0.278,14.194,7.043,14.194L470.941,294.845z"/>
<path style="fill:#A6A6A6;" d="M283.176,99.464c19.44,3.739,27.553,27.122,14.614,42.093
	c-52.174,60.367-96.031,115.965-115.631,141.227c-4.541,5.844-0.278,14.194,7.043,14.194l21.11-0.177
	c0.932-0.008,1.336-1.177,0.607-1.757c-3.526-2.805-4.697-8.147-1.501-12.26c22.772-29.351,78.291-99.655,141.553-170.808
	c0.467-0.526,0.26-1.363-0.402-1.6c-26.747-9.572-56.482-15.226-87.819-16.094c-0.318-0.009-0.62,0.131-0.815,0.382
	c-0.005,0.006-0.009,0.012-0.014,0.018c-0.473,0.608-0.1,1.496,0.665,1.587C269.561,97.098,276.43,98.166,283.176,99.464z"/>
<path style="fill:#8C8C8C;" d="M443.39,295.752c-6.611,20.577-18.599,39.706-34.846,56.419c-0.611,0.629-0.177,1.678,0.701,1.678
	h24.488c0.267,0,0.524-0.107,0.712-0.296c16.831-16.929,29.255-36.405,36.078-57.398c0.209-0.643-0.282-1.304-0.958-1.298
	l-25.247,0.212C443.892,295.072,443.52,295.347,443.39,295.752z"/>
<path style="fill:#CCCCCC;" d="M256,81C114.618,81,0,159.349,0,256s114.618,175,256,175s256-78.349,256-175S397.382,81,256,81z
	 M461.995,291.268c-6.418,20.527-18.481,39.56-34.933,56.031C388.605,386.056,326.31,411.256,256,411.256
	c-116.771,0-211.537-69.506-211.537-155.225c0-85.791,94.766-155.297,211.537-155.297c2.637,0,5.192,0,7.829,0.082
	c30.452,0.793,59.307,6.341,85.186,15.771c70.217,25.2,118.522,78.143,118.522,139.444
	C467.537,268.188,465.601,279.996,461.995,291.268z"/>
<path style="fill:#A6A6A6;" d="M243.505,101.011c-1.805-0.081-3.614-0.148-5.43-0.195c-2.637-0.082-5.192-0.082-7.829-0.082
	c-116.771,0-211.537,69.506-211.537,155.297c0,85.719,94.766,155.225,211.537,155.225c4.364,0,8.696-0.098,12.995-0.29
	c-110.835-4.845-198.778-72.362-198.778-154.935C44.463,173.322,132.545,105.76,243.505,101.011z"/>
<path style="fill:#8C8C8C;" d="M256,81c-4.319,0-8.611,0.076-12.877,0.22C378.522,85.806,486.245,162.301,486.245,256
	S378.522,426.194,243.123,430.78c4.266,0.145,8.559,0.22,12.877,0.22c141.382,0,256-78.349,256-175S397.382,81,256,81z"/>
<g>
</g>
<g>
</g>
<g>
</g>
<g>
</g>
<g>
</g>
<g>
</g>
<g>
</g>
<g>
</g>
<g>
</g>
<g>
</g>
<g>
</g>
<g>
</g>
<g>
</g>
<g>
</g>
<g>
</g>
</svg>
