<?xml version="1.0" encoding="utf-8"?>
<!-- Generator: Adobe Illustrator 21.1.0, SVG Export Plug-In . SVG Version: 6.00 Build 0)  -->
<svg version="1.1" id="Layer_1" xmlns="http://www.w3.org/2000/svg" xmlns:xlink="http://www.w3.org/1999/xlink" x="0px" y="0px"
	 viewBox="0 0 1951.6 417" style="enable-background:new 0 0 1951.6 417;" xml:space="preserve">
<style type="text/css">
	.st0{fill:#FFFFFF;}
	.st1{fill:url(#SVGID_1_);}
	.st2{fill:#FF3737;enable-background:new    ;}
</style>
<path class="st0" d="M303,152.3"/>
<linearGradient id="SVGID_1_" gradientUnits="userSpaceOnUse" x1="1.0395" y1="196.5871" x2="440.6605" y2="196.5871">
	<stop  offset="0" style="stop-color:#FF3737"/>
	<stop  offset="1" style="stop-color:#FF8705"/>
</linearGradient>
<path class="st1" d="M440.6,120.4c0,0-52.5-1.5-70.5,77s70.5,95,70.5,95l-1,27.7c0,0-155.2,0-184.7,0c-29.5,0-45.5-0.7-55-3.2
	c-9.5-2.5-19.5-9.9-24.5-15.5c-5-5.5-12.5-21.5-12.5-21.5s7.4,9,13.4,12.1c8.3,4.3,15.7,7.8,26,7c12.7-1,18.4-6.1,19.7-17
	c1.3-11.7-3-24.6-29-27c-21.3-2-30.8,2.8-50,10c-13.3,5-33.3,10.3-55.3-7c-20.8-16.4-23.3-33.4-24.2-36.5c-3.8-13-7-35.5-13-46
	s-19.8-13.6-27-15c-7.8-1.5-22.5,0-22.5,0s6-2,18-4.5c12-2.5,29.5,0.5,39.5,4.5c10,4,22.2,16.5,27,31.5c4.8,14.9,9,22,19.5,27
	s24,2,31-3.5c7-5.5,7.8-13.1,7.5-18c-0.3-5-3.4-16.4-15-17.5c-11.5-1.1-22.6-0.5-30.5-5.5c-9.4-6-12-15.5-14-22
	c-2-6.5-6.1-17.9-10.5-22.5c-5.2-5.5-15.2-5.9-15.2-5.9s6.8-0.9,11.1,0.1c4.3,1,13.7,5.5,20.2,12.4c7.2,7.7,14.9,15.6,24.6,15.7
	c6.3,0,15.9,0,15.9-17c0-11.9-10-16-21.3-16c-8.2,0-23.8,4.1-23.8,4.1s11.6-12.8,28-19.5c5.2-2.1,10.2-2.1,14.6-1.7
	c10.4,1.1,19.4,7.7,32.4,15.7c18.5,11.3,36.8,28.1,58.1,28.8c19.7,0.6,45-6.3,39-38.7c-5.1-27.8-33.7-20.9-44.7-18.3
	c-10,2.3-20.9,9.2-20.9,9.2s11.5-14,24-20c12.5-6,20.4-5.3,27.5-5.4c71.9-1,197.7,0,197.7,0L440.6,120.4L440.6,120.4z"/>
<path class="st2" d="M0,69.3"/>
<path id="quattro" class="st0" d="M524.8,80.4l-6.5,31.2c-17.6-25.1-42.3-37.7-73.9-37.7c-22,0-41.6,5.7-58.8,16.9
	s-30.6,27-40.2,47.2c-9.6,20.1-14.4,43-14.4,68.8c0,23.2,4.3,43.4,12.8,60.5c8.6,17,20.4,30.2,35.6,39.2
	c15.1,9.2,32.7,13.7,52.5,13.7c14.2,0,27.1-2.5,38.6-7.5c11.2-4.8,21-12.1,28.8-21.4L489.3,417h84.2l21.4-268.8
	c2.2-25.7,5.3-48.3,9.3-67.8L524.8,80.4L524.8,80.4z M461,257.9c-14.8,0-26.3-4.9-34.4-14.6c-8.1-9.8-12.1-23.8-12.1-42
	c0-19.8,4.3-35.5,12.8-46.9c8.6-11.5,20.4-17.2,35.6-17.2c14.5,0,25.7,4.9,33.5,14.6s11.7,24.4,11.7,43.9c0,18.6-4.3,33.7-12.8,45.1
	C486.7,252.2,475.3,257.9,461,257.9L461,257.9z M773.9,80.4l-11.2,129.2c-0.9,14.2-4.8,25.5-11.7,33.7c-6.8,8.2-16.1,12.4-27.9,12.4
	c-11.2,0-19.2-3.7-24.2-11s-7-17.7-6.1-31.4l11.2-133H619l-10.3,138.1c-0.6,8.1-0.9,13.9-0.9,17.6c0,27.6,6.7,48.5,20,62.8
	c13.3,14.2,32.9,21.4,58.6,21.4c14.3,0.2,28.6-2.5,41.8-7.9c12.8-5.3,23.1-12.8,31.2-22.3l-2.3,26.5h82.3l18.6-236.1L773.9,80.4
	L773.9,80.4z M1047.2,80.4l-2.3,26.5c-16.1-22-39.5-33-70.2-33c-22,0-41.6,5.7-58.8,16.9c-17.2,11.4-30.6,27-40.2,47.2
	c-9.7,20.1-14.4,43-14.4,68.8c0,23.2,4.3,43.4,12.8,60.5c8.6,17,20.3,30.2,35.6,39.2c15.1,9.2,32.7,13.7,52.5,13.7
	c14.5,0,27.7-2.6,39.5-7.9c11.4-4.9,21.2-12.6,28.8-22.3l-2.3,26.5h83.2l18.6-236.2L1047.2,80.4L1047.2,80.4z M991.4,257.9
	c-14.8,0-26.4-4.9-34.7-14.6c-8.2-9.8-12.4-23.8-12.4-42c0-19.8,4.4-35.5,13-46.9s20.4-17.2,35.4-17.2c14.5,0,25.7,4.9,33.5,14.6
	s11.7,24.4,11.7,43.9c0,18.6-4.2,33.7-12.6,45.1C1017,252.2,1005.6,257.9,991.4,257.9L991.4,257.9L991.4,257.9z M1268.7,142.7h57.2
	l4.7-62.3h-56.7l6.5-80.4l-86.6,26.9l-4.2,53.5h-44.1l-5.1,62.3h44.1l-6.1,75.8c-0.4,4.2-0.5,8.4-0.5,12.6
	c0,28.2,7.6,50.1,22.8,65.7c15.1,15.6,37.5,23.5,66.9,23.5c18.2,0,33.2-2.3,44.6-7l5.6-64.2c-9.7,2.2-17.3,3.3-23.2,3.3
	c-10,0-17.9-2.9-23.9-8.6c-6.1-5.8-8.8-14.1-8.2-25.3L1268.7,142.7z M1442.6,142.7h57.2l4.7-62.3h-56.7l6.5-80.4l-86.5,27l-4.2,53.5
	h-44.1l-5.1,62.3h44.1l-6.1,75.8c-0.4,4.2-0.5,8.4-0.5,12.6c0,28.2,7.6,50.1,22.8,65.7c15.1,15.6,37.5,23.5,66.9,23.5
	c18.3,0,33.2-2.3,44.6-7l5.6-64.2c-9.6,2.2-17.3,3.3-23.2,3.3c-10,0-17.9-2.9-23.9-8.6c-6.1-5.8-8.8-14.1-8.2-25.3L1442.6,142.7z
	 M1671,74.8c-14.8-0.1-29.5,3.5-42.5,10.5c-13.1,7-23,16.5-29.5,28.6l-1.4-33.5h-79.5c0.3,4,0.5,10.4,0.5,19
	c0,10.9-0.6,27.1-1.9,48.8l-13.4,168.3h84.2l9.3-118.5c1.6-18.3,7.2-31.3,16.7-39.1c9.6-7.8,22.9-11.7,39.9-11.7
	c13.5,0,26.9,3.2,39.1,9.3l5.6-76.7C1691.7,76.5,1682.7,74.8,1671,74.8L1671,74.8L1671,74.8z M1821.9,320.3c26,0,48.8-5.1,68.3-15.3
	c19.2-10,35-25.4,45.3-44.4c10.7-19.3,16-42.5,16-69.5c0-23.2-5.2-43.7-15.5-61.4c-10.4-17.6-25.3-31.4-44.6-41.1
	c-19.3-9.8-42-14.6-68.1-14.6c-26,0-48.9,5.2-68.5,15.5c-19.3,10.1-35.3,25.6-45.8,44.6c-10.9,19.3-16.2,42.3-16.2,69
	c0,23.5,5.2,44.1,15.5,61.9c10.4,17.6,25.3,31.3,44.8,40.9C1772.6,315.5,1795.6,320.3,1821.9,320.3L1821.9,320.3L1821.9,320.3z
	 M1820.5,257.9c-15.1,0-26.4-4.4-33.7-13c-7.3-8.7-11-22.1-11-40.4c0-19.5,3.8-35.7,11.4-48.3c7.6-12.8,19.9-19,37-19
	c14.8,0,26,4.3,33.3,12.8c7.3,8.5,11,21.6,11,39.2c0,20.1-3.8,36.7-11.4,49.5C1849.4,251.5,1837.2,257.9,1820.5,257.9L1820.5,257.9
	L1820.5,257.9z"/>
</svg>
