<?xml version="1.0" encoding="iso-8859-1"?>
<!-- Generator: Adobe Illustrator 19.0.0, SVG Export Plug-In . SVG Version: 6.00 Build 0)  -->
<svg version="1.1" id="Capa_1" xmlns="http://www.w3.org/2000/svg" xmlns:xlink="http://www.w3.org/1999/xlink" x="0px" y="0px"
	 viewBox="0 0 512 512" style="enable-background:new 0 0 512 512;" xml:space="preserve">
<path style="fill:#CCCCCC;" d="M465.469,254.01l-144.181-252C320.58,0.77,319.253,0,317.825,0H194.177
	c-1.427,0-2.755,0.77-3.464,2.01l-144.181,252c-0.709,1.23-0.709,2.75,0,3.98l144.181,252c0.09,0.15,0.18,0.3,0.279,0.43
	c0,0.01,0.01,0.01,0.01,0.01c0.319,0.42,0.719,0.76,1.158,1.02c0.469,0.28,0.988,0.45,1.537,0.51c0.16,0.03,0.319,0.04,0.479,0.04
	h123.649c1.427,0,2.755-0.77,3.463-2.01l144.181-252C466.178,256.76,466.178,255.24,465.469,254.01z M183.786,257.89
	c-0.629-1.18-0.629-2.6,0-3.78l72.215-134.58l72.215,134.58c0.629,1.18,0.629,2.6,0,3.78l-72.215,134.58L183.786,257.89z"/>
<path style="fill:#8C8C8C;" d="M317.825,0h-23.37l146.469,256L294.455,512h23.37c1.431,0,2.752-0.767,3.464-2.011l144.18-252
	c0.705-1.232,0.705-2.746,0-3.978l-144.18-252C320.577,0.767,319.256,0,317.825,0z"/>
<path style="fill:#CCCCCC;" d="M317.766,4.42l-10.051,18.74L268.847,95.6l-12.846,23.93l-72.215,134.58
	c-0.639,1.18-0.639,2.6,0,3.78l72.215,134.58l-12.846,23.93l-40.185,74.9v0.01l-8.594,16.01l-2.216,4.13l-0.12,0.21
	c-0.319-0.19-0.589-0.45-0.799-0.75c-0.04-0.07-0.08-0.13-0.12-0.2l-0.409-0.72l-144.181-252c-0.709-1.23-0.709-2.75,0-3.98
	l144.181-252c0.709-1.24,2.036-2.01,3.464-2.01H315.13C317.396,0,318.844,2.42,317.766,4.42z"/>
<path style="fill:#E3E3E3;" d="M317.766,4.42l-10.051,18.74L268.847,95.6l-12.846,23.93l-72.215,134.58
	c-0.639,1.18-0.639,2.6,0,3.78l72.215,134.58l-12.846,23.93l-40.185,74.9v0.01l-8.594,16.01l-2.216,4.13l-0.12,0.21
	c-0.319-0.19-0.589-0.45-0.799-0.75c-0.04-0.07-0.08-0.13-0.12-0.2l-0.409-0.72l-144.181-252c-0.709-1.23-0.709-2.75,0-3.98
	l144.181-252c0.709-1.24,2.036-2.01,3.464-2.01H315.13C317.396,0,318.844,2.42,317.766,4.42z"/>
<path style="fill:#8C8C8C;" d="M294.455,0l-136.35,254.106c-0.635,1.183-0.635,2.605,0,3.788l85.054,158.509l12.842-23.935
	l-72.213-134.574c-0.635-1.183-0.635-2.605,0-3.788L317.766,4.421C318.839,2.422,317.394,0,315.129,0H294.455z"/>
<path style="fill:#A6A6A6;" d="M353.898,257.89L217.543,512h-24.255c-0.449,0-0.878-0.13-1.248-0.34l0.12-0.21l2.216-4.13
	l8.594-16.01v-0.01l40.185-74.9l12.846-23.93l72.215-134.58c0.629-1.18,0.629-2.6,0-3.78l-72.215-134.58l12.846-23.93l85.051,158.51
	C354.537,255.29,354.537,256.71,353.898,257.89z"/>
<g>
</g>
<g>
</g>
<g>
</g>
<g>
</g>
<g>
</g>
<g>
</g>
<g>
</g>
<g>
</g>
<g>
</g>
<g>
</g>
<g>
</g>
<g>
</g>
<g>
</g>
<g>
</g>
<g>
</g>
</svg>
